# xmcd
#
# Track frame offsets:
#	150
#	18209
#	32973
#	49677
#	62704
#	83157
#	98000
#	111061
#	127226
#	144994
#	160339
#	176583
#	192978
#	208609
#	225624
#	240589
#	259137
#	267639
#	284794
#
# Disc length: 3937
#
# Revision: 2
# Processed by: cddbd v1.5.1PL0 Copyright (c) Steve Scherf et al.
# Submitted via: FreeRIP 2.60 
# Normalized: r1:DSETVAR1,TDELIM( - )
#
DISCID=170f5f13
DTITLE=Various Artist - Promo Only Country Radio March 2002
DYEAR=2002
DGENRE=Country
TTITLE0=Alan Jackson - Drive (For Daddy Gene)
TTITLE1=Toby Keith - My List
TTITLE2=Rascal Flatts - I'm Movin' On
TTITLE3=Jamie O'Neal - Frantic
TTITLE4=Sara Evans - I Keep Looking
TTITLE5=Brad Paisley - I'm Gonna Miss Her
TTITLE6=Hometown News - Minivan
TTITLE7=Clint Black - Money Or Love
TTITLE8=McBride And The Ride - Anything That Touches You
TTITLE9=The Derailers - Bar Exam
TTITLE10=David Ball - She Always Talked About Mexico
TTITLE11=Brett James - Chasin' Amy
TTITLE12=Confederate Railroad - She Treats Her Body Like A Temple
TTITLE13=Jeff Carson - Until We Fall Back In Love Again
TTITLE14=Shannon Brown - Untangle My Heart
TTITLE15=Earl Thomas Conley - Love's The Only Voice
TTITLE16=Dale Watson And The Jordanaires - In The Jailhouse Now
TTITLE17=Johnny Rodriquez - I Don't Know How To Love You
TTITLE18=Joe Stampley With Tony Stampley - If It Ain't One Thing (It's Another)
EXTD=
EXTT0=
EXTT1=
EXTT2=
EXTT3=
EXTT4=
EXTT5=
EXTT6=
EXTT7=
EXTT8=
EXTT9=
EXTT10=
EXTT11=
EXTT12=
EXTT13=
EXTT14=
EXTT15=
EXTT16=
EXTT17=
EXTT18=
PLAYORDER=
